<svg xmlns="http://www.w3.org/2000/svg" xmlns:xlink="http://www.w3.org/1999/xlink" width="1300" zoomAndPan="magnify" viewBox="0 0 974.88 374.999991" height="500" preserveAspectRatio="xMidYMid meet" version="1.2"><defs/><g id="8ed34911ab"><path style=" stroke:none;fill-rule:nonzero;fill:#d42c34;fill-opacity:1;" d="M 249.757812 110.921875 C 249.414062 111.316406 248.640625 112.632812 247.144531 115.40625 C 246.785156 116.09375 246.226562 117.027344 245.917969 117.480469 C 245.613281 117.929688 245.160156 118.722656 244.890625 119.246094 C 244.640625 119.75 244.296875 120.363281 244.117188 120.613281 C 243.847656 121.011719 243.304688 121.910156 241.289062 125.386719 C 241.074219 125.785156 240.839844 126.234375 240.765625 126.378906 C 240.65625 126.703125 240.441406 127.0625 239.289062 128.953125 C 238.046875 131.027344 236.460938 133.765625 235.019531 136.378906 C 233.613281 138.917969 232.910156 140.070312 232.765625 140.070312 C 232.695312 140.070312 232.496094 140.375 232.316406 140.738281 C 232.15625 141.117188 231.882812 141.65625 231.722656 141.960938 C 231.542969 142.25 231.054688 143.152344 230.605469 143.945312 C 230.171875 144.734375 229.667969 145.617188 229.488281 145.925781 C 229.328125 146.214844 229.019531 146.808594 228.804688 147.222656 C 228.605469 147.636719 228.355469 148.03125 228.246094 148.085938 C 228.15625 148.160156 227.777344 148.789062 227.417969 149.492188 C 227.074219 150.214844 226.730469 150.824219 226.660156 150.878906 C 226.605469 150.933594 226.40625 151.203125 226.246094 151.511719 C 226.082031 151.796875 225.433594 152.933594 224.824219 154.03125 C 224.210938 155.113281 223.542969 156.300781 223.34375 156.644531 C 223.164062 156.988281 222.894531 157.402344 222.785156 157.546875 C 222.660156 157.6875 222.28125 158.300781 221.957031 158.894531 C 221.632812 159.492188 221.203125 160.265625 221.003906 160.609375 C 220.824219 160.949219 220.554688 161.363281 220.410156 161.527344 C 220.265625 161.671875 220.15625 161.90625 220.15625 162.03125 C 220.15625 162.140625 220.011719 162.464844 219.8125 162.734375 C 219.4375 163.273438 217.09375 167.417969 217.09375 167.542969 C 217.09375 167.578125 216.878906 167.921875 216.625 168.300781 C 216.066406 169.128906 216.140625 169.777344 216.894531 170.929688 C 217.167969 171.34375 217.777344 172.371094 218.246094 173.21875 C 218.714844 174.066406 219.164062 174.875 219.257812 175.019531 C 219.347656 175.164062 219.761719 175.902344 220.175781 176.640625 C 220.605469 177.378906 221.128906 178.226562 221.363281 178.496094 C 221.597656 178.785156 221.777344 179.144531 221.777344 179.289062 C 221.777344 179.453125 221.886719 179.722656 222.03125 179.867188 C 222.300781 180.191406 224.175781 183.398438 224.714844 184.476562 C 224.914062 184.875 225.292969 185.523438 225.5625 185.917969 C 225.8125 186.316406 226.300781 187.164062 226.625 187.8125 C 226.949219 188.460938 227.363281 189.144531 227.542969 189.34375 C 227.707031 189.539062 227.976562 189.9375 228.121094 190.242188 C 228.261719 190.53125 228.894531 191.667969 229.507812 192.765625 C 230.136719 193.847656 230.769531 194.980469 230.929688 195.289062 C 231.109375 195.574219 231.289062 195.863281 231.34375 195.917969 C 231.398438 195.972656 231.992188 196.980469 232.660156 198.167969 C 233.308594 199.359375 233.972656 200.492188 234.117188 200.691406 C 234.371094 201.035156 234.207031 201.359375 232.027344 205.195312 C 230.75 207.484375 229.632812 209.394531 229.542969 209.484375 C 229.417969 209.609375 229.253906 209.339844 228.046875 207.085938 C 227.757812 206.546875 227.398438 205.96875 227.253906 205.808594 C 227.109375 205.664062 227.003906 205.464844 227.003906 205.375 C 227.003906 205.304688 226.730469 204.816406 226.40625 204.3125 C 225.867188 203.503906 224.515625 201.125 223.777344 199.738281 C 223.632812 199.46875 223.472656 199.214844 223.398438 199.160156 C 223.328125 199.105469 223.003906 198.546875 222.679688 197.898438 C 222.355469 197.25 221.761719 196.207031 221.363281 195.558594 C 220.300781 193.847656 218.714844 191.109375 218.140625 189.972656 C 217.851562 189.433594 217.507812 188.875 217.382812 188.710938 C 217.257812 188.566406 216.804688 187.792969 216.375 187 C 215.597656 185.542969 214.175781 183.089844 213.328125 181.777344 C 213.078125 181.378906 212.753906 180.804688 212.589844 180.515625 C 211.871094 179.183594 208.734375 173.597656 208.300781 172.894531 C 208.03125 172.460938 207.511719 171.652344 207.148438 171.074219 C 206.769531 170.5 206.464844 169.957031 206.464844 169.886719 C 206.464844 169.8125 206.285156 169.617188 206.070312 169.417969 C 205.671875 169.09375 204.753906 169.09375 176.46875 169.074219 C 153.984375 169.074219 147.210938 169.128906 147.050781 169.292969 C 146.925781 169.417969 146.835938 169.707031 146.835938 169.941406 C 146.835938 170.335938 148.238281 173.164062 148.742188 173.757812 C 149.03125 174.121094 150.976562 177.542969 150.976562 177.722656 C 150.976562 177.792969 151.105469 177.976562 151.285156 178.101562 C 151.445312 178.246094 151.789062 178.804688 152.039062 179.34375 C 152.5625 180.425781 153.246094 181.632812 154.113281 183.019531 C 154.6875 183.957031 155.121094 184.695312 156.023438 186.371094 C 156.328125 186.910156 156.867188 187.847656 157.265625 188.441406 C 157.644531 189.035156 158.347656 190.242188 158.832031 191.125 C 160.347656 193.882812 160.617188 194.332031 161.839844 196.367188 C 162.488281 197.449219 163.28125 198.871094 163.605469 199.519531 C 163.929688 200.167969 164.308594 200.800781 164.433594 200.945312 C 164.578125 201.070312 164.976562 201.71875 165.316406 202.386719 C 165.660156 203.035156 166.128906 203.878906 166.34375 204.242188 C 166.5625 204.621094 167.082031 205.503906 167.515625 206.222656 C 168.453125 207.824219 168.5625 208.023438 169.28125 209.175781 C 169.605469 209.683594 170.164062 210.65625 170.507812 211.339844 C 170.867188 212.023438 171.351562 212.886719 171.570312 213.25 C 171.785156 213.609375 172.363281 214.617188 172.847656 215.5 C 174.074219 217.699219 174.957031 219.175781 175.136719 219.339844 C 175.226562 219.429688 177.117188 222.816406 177.785156 224.113281 C 177.929688 224.398438 178.109375 224.6875 178.179688 224.742188 C 178.234375 224.796875 178.59375 225.390625 178.972656 226.09375 C 179.351562 226.777344 179.910156 227.605469 180.199219 227.929688 L 180.738281 228.488281 L 320.105469 228.488281 L 320.644531 227.929688 C 320.933594 227.605469 321.492188 226.777344 321.871094 226.09375 C 322.25 225.390625 322.628906 224.796875 322.699219 224.777344 C 322.773438 224.742188 322.84375 224.5625 322.84375 224.382812 C 322.84375 224.203125 322.917969 224.003906 323.007812 223.933594 C 323.113281 223.878906 323.726562 222.851562 324.394531 221.625 C 325.058594 220.417969 325.65625 219.390625 325.707031 219.339844 C 325.761719 219.285156 325.960938 218.996094 326.125 218.707031 C 326.449219 218.113281 328.574219 214.417969 329.367188 213.070312 C 329.636719 212.601562 330.121094 211.734375 330.429688 211.140625 C 330.734375 210.546875 331.257812 209.644531 331.5625 209.160156 C 331.871094 208.65625 332.230469 208.097656 332.355469 207.898438 C 332.679688 207.359375 334.03125 205.035156 334.554688 204.113281 C 334.804688 203.683594 335.492188 202.457031 336.085938 201.414062 C 336.679688 200.351562 337.347656 199.195312 337.5625 198.835938 C 337.777344 198.476562 338.140625 197.863281 338.335938 197.484375 C 338.554688 197.105469 338.984375 196.367188 339.308594 195.863281 C 339.632812 195.339844 339.957031 194.800781 340.03125 194.65625 C 340.101562 194.511719 340.425781 193.917969 340.734375 193.359375 C 342.121094 190.875 342.96875 189.394531 343.976562 187.722656 C 346.046875 184.261719 346.265625 183.882812 346.265625 183.757812 C 346.265625 183.703125 346.460938 183.378906 346.695312 183.074219 C 346.929688 182.75 347.433594 181.882812 347.796875 181.144531 C 348.175781 180.40625 348.804688 179.273438 349.199219 178.625 C 349.597656 177.976562 350.390625 176.640625 350.964844 175.652344 C 354.117188 170.191406 354.300781 169.796875 353.792969 169.292969 C 353.632812 169.128906 346.859375 169.074219 324.410156 169.074219 C 295.296875 169.074219 295.246094 169.074219 294.777344 169.433594 C 294.523438 169.652344 293.894531 170.535156 293.40625 171.417969 C 291.820312 174.210938 289.984375 177.363281 289.640625 177.867188 C 289.480469 178.136719 289.15625 178.714844 288.957031 179.144531 C 288.488281 180.136719 286.992188 182.585938 286.6875 182.910156 C 286.5625 183.035156 286.453125 183.234375 286.453125 183.324219 C 286.453125 183.46875 284.617188 186.75 284.292969 187.179688 C 284.148438 187.378906 283.371094 188.746094 282.652344 190.0625 C 281.644531 191.953125 280.113281 194.585938 279.714844 195.105469 C 279.5 195.394531 278.921875 196.421875 278.4375 197.359375 C 277.96875 198.296875 277.519531 199.105469 277.445312 199.160156 C 277.375 199.214844 276.742188 200.277344 276.039062 201.539062 C 275.335938 202.800781 274.5625 204.097656 274.328125 204.421875 C 274.078125 204.746094 273.789062 205.214844 273.679688 205.464844 C 273.570312 205.71875 273.15625 206.476562 272.761719 207.175781 C 272.363281 207.863281 271.914062 208.707031 271.753906 209.03125 C 271.589844 209.359375 271.390625 209.574219 271.300781 209.484375 C 271.230469 209.410156 270.09375 207.484375 268.816406 205.214844 C 266.78125 201.628906 266.511719 201.035156 266.691406 200.746094 C 266.980469 200.277344 267.644531 199.144531 268.601562 197.414062 C 269.03125 196.636719 269.445312 195.972656 269.5 195.917969 C 269.554688 195.863281 269.789062 195.503906 269.988281 195.105469 C 271.554688 192.207031 272.457031 190.585938 272.5625 190.511719 C 272.691406 190.40625 273.15625 189.59375 273.609375 188.710938 C 273.769531 188.371094 274.023438 187.957031 274.148438 187.8125 C 274.273438 187.648438 274.671875 186.964844 275.03125 186.28125 C 275.390625 185.578125 275.753906 184.984375 275.824219 184.929688 C 275.878906 184.875 276.078125 184.585938 276.21875 184.296875 C 276.382812 183.992188 276.976562 182.929688 277.554688 181.921875 C 278.148438 180.894531 278.777344 179.757812 278.976562 179.363281 C 279.175781 178.984375 279.464844 178.53125 279.605469 178.351562 C 279.894531 178.011719 280.777344 176.496094 281.410156 175.289062 C 281.789062 174.570312 281.984375 174.246094 283.625 171.417969 C 284.542969 169.796875 284.707031 168.929688 284.183594 168.191406 C 284.019531 167.957031 283.679688 167.398438 283.410156 166.929688 C 282.074219 164.535156 280.921875 162.5 280.597656 161.960938 C 278.542969 158.535156 278.074219 157.726562 276.453125 154.753906 C 276.078125 154.050781 275.445312 153.003906 275.066406 152.429688 C 274.6875 151.835938 274.382812 151.257812 274.382812 151.132812 C 274.382812 151.003906 274.3125 150.878906 274.222656 150.84375 C 274.148438 150.808594 273.714844 150.160156 273.285156 149.382812 C 272.851562 148.589844 272.3125 147.671875 272.09375 147.3125 C 271.878906 146.933594 271.5 146.285156 271.265625 145.835938 C 271.03125 145.386719 270.492188 144.449219 270.09375 143.726562 C 269.679688 143.007812 269.339844 142.359375 269.339844 142.269531 C 269.339844 142.179688 269.085938 141.800781 268.796875 141.421875 C 268.492188 141.042969 268.203125 140.539062 268.148438 140.304688 C 268.078125 140.089844 267.988281 139.890625 267.914062 139.890625 C 267.808594 139.890625 267.355469 139.152344 265.824219 136.378906 C 265.539062 135.835938 264.746094 134.484375 264.097656 133.367188 C 259.699219 125.839844 258.4375 123.675781 258.0625 122.957031 C 257.539062 121.984375 257.160156 121.335938 255.628906 118.757812 C 254.152344 116.273438 253.628906 115.351562 252.367188 113.011719 C 251.449219 111.335938 250.765625 110.523438 250.277344 110.523438 C 250.1875 110.523438 249.953125 110.707031 249.757812 110.921875 Z M 251.054688 141.097656 C 251.339844 141.671875 251.703125 142.304688 251.863281 142.503906 C 252.171875 142.878906 252.800781 143.945312 253.703125 145.65625 C 253.988281 146.195312 254.402344 146.953125 254.621094 147.3125 C 254.835938 147.671875 255.414062 148.699219 255.898438 149.5625 C 256.386719 150.429688 257 151.472656 257.269531 151.871094 C 257.753906 152.589844 259.230469 155.167969 259.753906 156.195312 C 259.917969 156.480469 260.078125 156.769531 260.152344 156.824219 C 260.222656 156.878906 260.566406 157.507812 260.925781 158.230469 C 261.285156 158.949219 261.734375 159.761719 261.917969 160.03125 C 262.292969 160.570312 262.996094 161.726562 263.394531 162.410156 C 264.457031 164.320312 264.890625 165.058594 265.085938 165.292969 C 265.214844 165.4375 265.609375 166.175781 265.988281 166.949219 C 266.347656 167.707031 266.761719 168.425781 266.90625 168.535156 C 267.25 168.824219 267.230469 169.382812 266.851562 170.082031 C 266.691406 170.390625 266.238281 171.238281 265.84375 171.976562 C 265.464844 172.714844 265.105469 173.34375 265.03125 173.398438 C 264.960938 173.453125 264.816406 173.6875 264.691406 173.9375 C 264.546875 174.191406 264.242188 174.769531 263.96875 175.21875 C 263.699219 175.6875 263.125 176.695312 262.691406 177.46875 C 262.242188 178.261719 261.84375 178.929688 261.789062 178.984375 C 261.734375 179.039062 261.539062 179.308594 261.375 179.613281 C 260.800781 180.675781 259.160156 183.578125 258.621094 184.515625 C 258.332031 185.019531 257.773438 186.007812 257.375 186.675781 C 257 187.34375 256.386719 188.386719 256.023438 188.980469 C 255.089844 190.511719 255.035156 190.621094 254.132812 192.242188 C 253.683594 193.035156 252.820312 194.546875 252.1875 195.59375 C 251.558594 196.65625 250.910156 197.773438 250.730469 198.097656 L 250.40625 198.691406 L 249.648438 197.359375 C 249.234375 196.636719 248.730469 195.773438 248.53125 195.449219 C 248.332031 195.125 247.71875 194.0625 247.179688 193.109375 C 245.378906 189.9375 245.125 189.46875 243.9375 187.449219 C 243.289062 186.351562 242.640625 185.234375 242.496094 184.964844 C 242.351562 184.695312 241.917969 183.992188 241.558594 183.398438 C 241.214844 182.804688 240.65625 181.828125 240.351562 181.234375 C 239.578125 179.777344 239.179688 179.089844 239.054688 178.984375 C 239 178.929688 238.585938 178.261719 238.152344 177.488281 C 237.722656 176.695312 237.179688 175.777344 236.964844 175.417969 C 236.75 175.039062 236.425781 174.460938 236.246094 174.121094 C 236.0625 173.777344 235.867188 173.453125 235.8125 173.398438 C 235.738281 173.34375 235.414062 172.785156 235.089844 172.15625 C 234.75 171.507812 234.296875 170.660156 234.082031 170.265625 C 233.867188 169.851562 233.667969 169.382812 233.667969 169.203125 C 233.667969 168.929688 234.101562 168.085938 234.390625 167.8125 C 234.441406 167.761719 234.730469 167.238281 235.019531 166.644531 C 235.324219 166.046875 235.6875 165.363281 235.847656 165.113281 C 236.171875 164.625 236.855469 163.472656 237.722656 161.941406 C 238.027344 161.417969 238.785156 160.066406 239.433594 158.949219 C 240.082031 157.832031 240.730469 156.699219 240.875 156.429688 C 241.019531 156.15625 241.359375 155.597656 241.613281 155.167969 C 241.863281 154.734375 242.40625 153.835938 242.785156 153.167969 C 243.164062 152.484375 243.648438 151.652344 243.847656 151.328125 C 244.1875 150.769531 246.566406 146.609375 247.179688 145.511719 C 247.738281 144.519531 248.820312 142.648438 249.339844 141.78125 C 249.648438 141.277344 249.988281 140.699219 250.097656 140.464844 C 250.207031 140.25 250.351562 140.070312 250.421875 140.070312 C 250.496094 140.070312 250.765625 140.539062 251.054688 141.097656 Z M 197.402344 184.515625 C 197.582031 184.800781 197.816406 185.109375 197.925781 185.234375 C 198.050781 185.359375 198.554688 186.261719 199.0625 187.253906 C 199.566406 188.242188 200.070312 189.109375 200.160156 189.164062 C 200.269531 189.234375 200.484375 189.578125 200.664062 189.9375 C 201.3125 191.234375 202.394531 193.144531 203.132812 194.296875 C 203.796875 195.359375 205.042969 197.503906 206.015625 199.304688 C 206.445312 200.097656 207.113281 201.269531 208.230469 203.125 C 208.679688 203.863281 209.238281 204.835938 209.492188 205.285156 C 209.726562 205.738281 210.105469 206.386719 210.320312 206.726562 C 211.382812 208.382812 211.671875 208.871094 212.15625 209.878906 C 212.445312 210.472656 212.933594 211.355469 213.257812 211.863281 C 213.582031 212.347656 213.851562 212.851562 213.851562 212.976562 C 213.851562 213.160156 211.363281 213.210938 201.421875 213.210938 L 189.007812 213.210938 L 188.703125 212.617188 C 188.539062 212.3125 188.304688 211.914062 188.179688 211.769531 C 188.054688 211.628906 187.675781 210.996094 187.332031 210.367188 C 187.007812 209.753906 186.558594 208.90625 186.324219 208.476562 C 185.910156 207.699219 185.136719 206.421875 184.378906 205.269531 C 184.144531 204.925781 183.945312 204.566406 183.945312 204.457031 C 183.945312 204.367188 183.65625 203.84375 183.296875 203.304688 C 182.953125 202.765625 182.378906 201.789062 182.035156 201.140625 C 181.371094 199.882812 180.9375 199.105469 179.53125 196.78125 C 179.046875 195.953125 178.503906 195 178.34375 194.640625 C 178.179688 194.277344 177.945312 193.917969 177.839844 193.863281 C 177.75 193.792969 177.101562 192.710938 176.433594 191.449219 C 175.765625 190.1875 175.011719 188.839844 174.722656 188.460938 C 174.453125 188.082031 174.21875 187.613281 174.21875 187.449219 C 174.21875 187.269531 174.089844 187.035156 173.929688 186.890625 C 173.785156 186.765625 173.480469 186.332031 173.28125 185.9375 C 173.082031 185.523438 172.757812 185 172.578125 184.765625 C 172.398438 184.53125 172.289062 184.28125 172.34375 184.191406 C 172.398438 184.101562 177.839844 184.027344 184.757812 184.027344 L 197.097656 184.027344 Z M 328.339844 184.40625 C 328.175781 184.875 326.988281 186.890625 326.789062 187.019531 C 326.699219 187.074219 326.628906 187.234375 326.628906 187.378906 C 326.628906 187.539062 326.355469 188.082031 326.015625 188.585938 C 325.691406 189.109375 325.023438 190.207031 324.554688 191.054688 C 324.085938 191.902344 323.492188 192.910156 323.257812 193.304688 C 323.042969 193.703125 322.683594 194.351562 322.484375 194.746094 C 322.304688 195.144531 321.945312 195.738281 321.691406 196.082031 C 321.421875 196.421875 321.222656 196.78125 321.222656 196.871094 C 321.222656 196.980469 321.023438 197.304688 320.789062 197.613281 C 320.554688 197.917969 320.214844 198.496094 320.015625 198.890625 C 319.816406 199.285156 319.042969 200.691406 318.285156 202.007812 C 317.53125 203.324219 316.898438 204.457031 316.898438 204.511719 C 316.898438 204.582031 316.699219 204.925781 316.484375 205.269531 C 315.65625 206.511719 314.808594 207.898438 314.503906 208.527344 C 314.324219 208.871094 314 209.449219 313.78125 209.808594 C 313.566406 210.167969 313.042969 211.085938 312.613281 211.84375 L 311.835938 213.210938 L 299.40625 213.210938 C 290.957031 213.210938 286.992188 213.160156 286.992188 213.03125 C 286.992188 212.925781 287.480469 211.988281 288.074219 210.925781 C 288.667969 209.878906 289.15625 208.980469 289.15625 208.925781 C 289.15625 208.871094 289.335938 208.527344 289.570312 208.1875 C 290.542969 206.710938 290.9375 206.042969 291.425781 205.195312 C 291.695312 204.691406 292.09375 204.007812 292.289062 203.648438 C 292.507812 203.285156 293.027344 202.386719 293.441406 201.628906 C 293.875 200.871094 294.308594 200.207031 294.398438 200.132812 C 294.488281 200.078125 294.558594 199.917969 294.558594 199.753906 C 294.558594 199.59375 294.742188 199.214844 294.972656 198.910156 C 295.207031 198.601562 295.765625 197.664062 296.234375 196.820312 C 296.703125 195.972656 297.351562 194.835938 297.695312 194.296875 C 298.035156 193.757812 298.613281 192.730469 298.972656 192.042969 C 299.351562 191.34375 299.765625 190.65625 299.894531 190.496094 C 300.035156 190.351562 300.144531 190.152344 300.144531 190.0625 C 300.144531 189.992188 300.433594 189.488281 300.777344 188.964844 C 301.117188 188.441406 301.40625 187.957031 301.40625 187.882812 C 301.40625 187.667969 303.0625 184.875 303.441406 184.425781 L 303.800781 184.027344 L 328.445312 184.027344 Z M 328.339844 184.40625 "/><path style=" stroke:none;fill-rule:nonzero;fill:#d42c34;fill-opacity:1;" d="M 195.566406 234.34375 C 195.152344 234.777344 194.394531 235.929688 193.855469 236.921875 C 193.332031 237.894531 192.738281 238.9375 192.503906 239.246094 C 192.285156 239.53125 191.710938 240.507812 191.222656 241.390625 C 190.738281 242.273438 190.125 243.351562 189.835938 243.820312 C 189.566406 244.269531 189.171875 244.972656 188.972656 245.371094 C 188.773438 245.765625 188.414062 246.414062 188.160156 246.8125 C 187.640625 247.675781 187.621094 248.019531 188.054688 248.398438 C 188.359375 248.683594 192.953125 248.703125 250.457031 248.703125 C 312.394531 248.703125 312.519531 248.703125 312.847656 248.34375 C 313.1875 247.964844 313.171875 247.820312 312.519531 246.632812 C 312.414062 246.433594 312.179688 245.984375 311.980469 245.640625 C 311.800781 245.296875 311.367188 244.523438 311.042969 243.929688 C 310.703125 243.335938 310.214844 242.488281 309.964844 242.039062 C 309.710938 241.585938 309.40625 241.066406 309.277344 240.867188 C 308.953125 240.363281 307.925781 238.613281 306.648438 236.398438 C 306.019531 235.335938 305.261719 234.273438 304.972656 234.019531 L 304.449219 233.570312 L 196.324219 233.570312 Z M 195.566406 234.34375 "/><g style="fill:#d42c34;fill-opacity:1;"><g transform="translate(378.014654, 169.156639)"><path style="stroke:none" d="M 22.578125 0.859375 C 18.585938 0.859375 14.726562 0.320312 11 -0.75 C 7.269531 -1.832031 4.273438 -3.242188 2.015625 -4.984375 L 5.984375 -13.78125 C 8.148438 -12.1875 10.722656 -10.910156 13.703125 -9.953125 C 16.679688 -8.992188 19.664062 -8.515625 22.65625 -8.515625 C 25.96875 -8.515625 28.414062 -9.003906 30 -9.984375 C 31.59375 -10.972656 32.390625 -12.285156 32.390625 -13.921875 C 32.390625 -15.128906 31.921875 -16.128906 30.984375 -16.921875 C 30.046875 -17.710938 28.84375 -18.347656 27.375 -18.828125 C 25.90625 -19.304688 23.921875 -19.835938 21.421875 -20.421875 C 17.578125 -21.328125 14.425781 -22.238281 11.96875 -23.15625 C 9.519531 -24.070312 7.414062 -25.539062 5.65625 -27.5625 C 3.90625 -29.582031 3.03125 -32.273438 3.03125 -35.640625 C 3.03125 -38.566406 3.820312 -41.222656 5.40625 -43.609375 C 7 -45.992188 9.394531 -47.878906 12.59375 -49.265625 C 15.789062 -50.660156 19.695312 -51.359375 24.3125 -51.359375 C 27.53125 -51.359375 30.675781 -50.972656 33.75 -50.203125 C 36.832031 -49.441406 39.53125 -48.335938 41.84375 -46.890625 L 38.234375 -38.015625 C 33.566406 -40.660156 28.898438 -41.984375 24.234375 -41.984375 C 20.960938 -41.984375 18.546875 -41.453125 16.984375 -40.390625 C 15.421875 -39.335938 14.640625 -37.945312 14.640625 -36.21875 C 14.640625 -34.488281 15.539062 -33.203125 17.34375 -32.359375 C 19.15625 -31.515625 21.910156 -30.679688 25.609375 -29.859375 C 29.453125 -28.953125 32.597656 -28.039062 35.046875 -27.125 C 37.503906 -26.207031 39.609375 -24.765625 41.359375 -22.796875 C 43.117188 -20.828125 44 -18.15625 44 -14.78125 C 44 -11.894531 43.191406 -9.257812 41.578125 -6.875 C 39.972656 -4.5 37.554688 -2.613281 34.328125 -1.21875 C 31.109375 0.164062 27.191406 0.859375 22.578125 0.859375 Z M 22.578125 0.859375 "/></g></g><g style="fill:#d42c34;fill-opacity:1;"><g transform="translate(424.032378, 169.156639)"><path style="stroke:none" d="M 30.4375 0.859375 C 25.195312 0.859375 20.472656 -0.269531 16.265625 -2.53125 C 12.054688 -4.789062 8.757812 -7.898438 6.375 -11.859375 C 4 -15.828125 2.8125 -20.289062 2.8125 -25.25 C 2.8125 -30.207031 4 -34.664062 6.375 -38.625 C 8.757812 -42.59375 12.054688 -45.707031 16.265625 -47.96875 C 20.472656 -50.226562 25.195312 -51.359375 30.4375 -51.359375 C 35.6875 -51.359375 40.398438 -50.226562 44.578125 -47.96875 C 48.765625 -45.707031 52.0625 -42.59375 54.46875 -38.625 C 56.875 -34.664062 58.078125 -30.207031 58.078125 -25.25 C 58.078125 -20.289062 56.875 -15.828125 54.46875 -11.859375 C 52.0625 -7.898438 48.765625 -4.789062 44.578125 -2.53125 C 40.398438 -0.269531 35.6875 0.859375 30.4375 0.859375 Z M 30.4375 -9.09375 C 33.425781 -9.09375 36.117188 -9.773438 38.515625 -11.140625 C 40.921875 -12.515625 42.804688 -14.425781 44.171875 -16.875 C 45.546875 -19.332031 46.234375 -22.125 46.234375 -25.25 C 46.234375 -28.375 45.546875 -31.160156 44.171875 -33.609375 C 42.804688 -36.066406 40.921875 -37.976562 38.515625 -39.34375 C 36.117188 -40.71875 33.425781 -41.40625 30.4375 -41.40625 C 27.457031 -41.40625 24.765625 -40.71875 22.359375 -39.34375 C 19.953125 -37.976562 18.0625 -36.066406 16.6875 -33.609375 C 15.320312 -31.160156 14.640625 -28.375 14.640625 -25.25 C 14.640625 -22.125 15.320312 -19.332031 16.6875 -16.875 C 18.0625 -14.425781 19.953125 -12.515625 22.359375 -11.140625 C 24.765625 -9.773438 27.457031 -9.09375 30.4375 -9.09375 Z M 30.4375 -9.09375 "/></g></g><g style="fill:#d42c34;fill-opacity:1;"><g transform="translate(484.908494, 169.156639)"><path style="stroke:none" d="M 54.53125 -50.5 L 32.6875 0 L 21.140625 0 L -0.65625 -50.5 L 11.96875 -50.5 L 27.34375 -14.421875 L 42.921875 -50.5 Z M 54.53125 -50.5 "/></g></g><g style="fill:#d42c34;fill-opacity:1;"><g transform="translate(538.71605, 169.156639)"><path style="stroke:none" d="M 45.09375 -9.375 L 45.09375 0 L 5.984375 0 L 5.984375 -50.5 L 44.15625 -50.5 L 44.15625 -41.125 L 17.609375 -41.125 L 17.609375 -30.15625 L 41.046875 -30.15625 L 41.046875 -21.0625 L 17.609375 -21.0625 L 17.609375 -9.375 Z M 45.09375 -9.375 "/></g></g><g style="fill:#d42c34;fill-opacity:1;"><g transform="translate(587.113991, 169.156639)"><path style="stroke:none" d="M 38.15625 0 L 28.421875 -14.0625 L 17.671875 -14.0625 L 17.671875 0 L 5.984375 0 L 5.984375 -50.5 L 27.84375 -50.5 C 32.320312 -50.5 36.207031 -49.753906 39.5 -48.265625 C 42.789062 -46.773438 45.328125 -44.65625 47.109375 -41.90625 C 48.890625 -39.164062 49.78125 -35.921875 49.78125 -32.171875 C 49.78125 -28.421875 48.875 -25.1875 47.0625 -22.46875 C 45.257812 -19.75 42.703125 -17.671875 39.390625 -16.234375 L 50.71875 0 Z M 37.953125 -32.171875 C 37.953125 -35.015625 37.035156 -37.191406 35.203125 -38.703125 C 33.378906 -40.210938 30.710938 -40.96875 27.203125 -40.96875 L 17.671875 -40.96875 L 17.671875 -23.375 L 27.203125 -23.375 C 30.710938 -23.375 33.378906 -24.140625 35.203125 -25.671875 C 37.035156 -27.210938 37.953125 -29.378906 37.953125 -32.171875 Z M 37.953125 -32.171875 "/></g></g><g style="fill:#d42c34;fill-opacity:1;"><g transform="translate(640.128131, 169.156639)"><path style="stroke:none" d="M 45.09375 -9.375 L 45.09375 0 L 5.984375 0 L 5.984375 -50.5 L 44.15625 -50.5 L 44.15625 -41.125 L 17.609375 -41.125 L 17.609375 -30.15625 L 41.046875 -30.15625 L 41.046875 -21.0625 L 17.609375 -21.0625 L 17.609375 -9.375 Z M 45.09375 -9.375 "/></g></g><g style="fill:#d42c34;fill-opacity:1;"><g transform="translate(688.526073, 169.156639)"><path style="stroke:none" d="M 5.984375 -50.5 L 17.671875 -50.5 L 17.671875 0 L 5.984375 0 Z M 5.984375 -50.5 "/></g></g><g style="fill:#d42c34;fill-opacity:1;"><g transform="translate(712.184097, 169.156639)"><path style="stroke:none" d="M 40.109375 -26.046875 L 50.78125 -26.046875 L 50.78125 -5.5625 C 48.039062 -3.488281 44.867188 -1.898438 41.265625 -0.796875 C 37.660156 0.304688 34.03125 0.859375 30.375 0.859375 C 25.132812 0.859375 20.421875 -0.253906 16.234375 -2.484375 C 12.046875 -4.722656 8.757812 -7.828125 6.375 -11.796875 C 4 -15.765625 2.8125 -20.25 2.8125 -25.25 C 2.8125 -30.25 4 -34.734375 6.375 -38.703125 C 8.757812 -42.671875 12.066406 -45.769531 16.296875 -48 C 20.535156 -50.238281 25.300781 -51.359375 30.59375 -51.359375 C 35.007812 -51.359375 39.019531 -50.613281 42.625 -49.125 C 46.238281 -47.632812 49.269531 -45.472656 51.71875 -42.640625 L 44.21875 -35.703125 C 40.613281 -39.503906 36.265625 -41.40625 31.171875 -41.40625 C 27.941406 -41.40625 25.078125 -40.734375 22.578125 -39.390625 C 20.078125 -38.046875 18.128906 -36.144531 16.734375 -33.6875 C 15.335938 -31.238281 14.640625 -28.425781 14.640625 -25.25 C 14.640625 -22.125 15.335938 -19.332031 16.734375 -16.875 C 18.128906 -14.425781 20.066406 -12.515625 22.546875 -11.140625 C 25.023438 -9.773438 27.847656 -9.09375 31.015625 -9.09375 C 34.390625 -9.09375 37.421875 -9.8125 40.109375 -11.25 Z M 40.109375 -26.046875 "/></g></g><g style="fill:#d42c34;fill-opacity:1;"><g transform="translate(767.794837, 169.156639)"><path style="stroke:none" d="M 52.296875 -50.5 L 52.296875 0 L 42.703125 0 L 17.53125 -30.65625 L 17.53125 0 L 5.984375 0 L 5.984375 -50.5 L 15.65625 -50.5 L 40.765625 -19.84375 L 40.765625 -50.5 Z M 52.296875 -50.5 "/></g></g><g style="fill:#d42c34;fill-opacity:1;"><g transform="translate(378.022005, 256.615326)"><path style="stroke:none" d="M 22.140625 0.4375 C 18.390625 0.4375 14.796875 -0.160156 11.359375 -1.359375 C 7.921875 -2.566406 5.265625 -4.15625 3.390625 -6.125 L 5.484375 -10.234375 C 7.304688 -8.410156 9.734375 -6.929688 12.765625 -5.796875 C 15.796875 -4.671875 18.921875 -4.109375 22.140625 -4.109375 C 26.660156 -4.109375 30.050781 -4.9375 32.3125 -6.59375 C 34.570312 -8.257812 35.703125 -10.410156 35.703125 -13.046875 C 35.703125 -15.066406 35.085938 -16.675781 33.859375 -17.875 C 32.640625 -19.082031 31.140625 -20.007812 29.359375 -20.65625 C 27.578125 -21.3125 25.097656 -22.023438 21.921875 -22.796875 C 18.128906 -23.753906 15.101562 -24.675781 12.84375 -25.5625 C 10.582031 -26.457031 8.644531 -27.816406 7.03125 -29.640625 C 5.414062 -31.472656 4.609375 -33.953125 4.609375 -37.078125 C 4.609375 -39.617188 5.28125 -41.9375 6.625 -44.03125 C 7.976562 -46.125 10.046875 -47.796875 12.828125 -49.046875 C 15.617188 -50.296875 19.082031 -50.921875 23.21875 -50.921875 C 26.101562 -50.921875 28.925781 -50.523438 31.6875 -49.734375 C 34.457031 -48.941406 36.851562 -47.847656 38.875 -46.453125 L 37.078125 -42.1875 C 34.960938 -43.582031 32.703125 -44.628906 30.296875 -45.328125 C 27.890625 -46.023438 25.53125 -46.375 23.21875 -46.375 C 18.800781 -46.375 15.472656 -45.519531 13.234375 -43.8125 C 10.992188 -42.101562 9.875 -39.90625 9.875 -37.21875 C 9.875 -35.195312 10.488281 -33.570312 11.71875 -32.34375 C 12.945312 -31.125 14.484375 -30.1875 16.328125 -29.53125 C 18.179688 -28.882812 20.671875 -28.175781 23.796875 -27.40625 C 27.503906 -26.488281 30.5 -25.585938 32.78125 -24.703125 C 35.0625 -23.816406 36.992188 -22.46875 38.578125 -20.65625 C 40.171875 -18.851562 40.96875 -16.414062 40.96875 -13.34375 C 40.96875 -10.789062 40.28125 -8.46875 38.90625 -6.375 C 37.539062 -4.289062 35.4375 -2.632812 32.59375 -1.40625 C 29.757812 -0.175781 26.273438 0.4375 22.140625 0.4375 Z M 22.140625 0.4375 "/></g></g><g style="fill:#d42c34;fill-opacity:1;"><g transform="translate(422.380566, 256.615326)"><path style="stroke:none" d="M 18.03125 -45.875 L 0.28125 -45.875 L 0.28125 -50.484375 L 41.109375 -50.484375 L 41.109375 -45.875 L 23.375 -45.875 L 23.375 0 L 18.03125 0 Z M 18.03125 -45.875 "/></g></g><g style="fill:#d42c34;fill-opacity:1;"><g transform="translate(463.78189, 256.615326)"><path style="stroke:none" d="M 28.5625 0.4375 C 22.019531 0.4375 16.921875 -1.4375 13.265625 -5.1875 C 9.617188 -8.9375 7.796875 -14.394531 7.796875 -21.5625 L 7.796875 -50.484375 L 13.125 -50.484375 L 13.125 -21.78125 C 13.125 -15.914062 14.445312 -11.539062 17.09375 -8.65625 C 19.738281 -5.769531 23.5625 -4.328125 28.5625 -4.328125 C 33.613281 -4.328125 37.457031 -5.769531 40.09375 -8.65625 C 42.738281 -11.539062 44.0625 -15.914062 44.0625 -21.78125 L 44.0625 -50.484375 L 49.265625 -50.484375 L 49.265625 -21.5625 C 49.265625 -14.394531 47.445312 -8.9375 43.8125 -5.1875 C 40.1875 -1.4375 35.101562 0.4375 28.5625 0.4375 Z M 28.5625 0.4375 "/></g></g><g style="fill:#d42c34;fill-opacity:1;"><g transform="translate(520.907071, 256.615326)"><path style="stroke:none" d="M 8.21875 -50.484375 L 28.78125 -50.484375 C 34.113281 -50.484375 38.820312 -49.410156 42.90625 -47.265625 C 47 -45.128906 50.175781 -42.148438 52.4375 -38.328125 C 54.695312 -34.503906 55.828125 -30.144531 55.828125 -25.25 C 55.828125 -20.34375 54.695312 -15.976562 52.4375 -12.15625 C 50.175781 -8.332031 47 -5.347656 42.90625 -3.203125 C 38.820312 -1.066406 34.113281 0 28.78125 0 L 8.21875 0 Z M 28.484375 -4.609375 C 32.910156 -4.609375 36.78125 -5.484375 40.09375 -7.234375 C 43.414062 -8.992188 45.988281 -11.425781 47.8125 -14.53125 C 49.644531 -17.632812 50.5625 -21.207031 50.5625 -25.25 C 50.5625 -29.28125 49.644531 -32.847656 47.8125 -35.953125 C 45.988281 -39.054688 43.414062 -41.484375 40.09375 -43.234375 C 36.78125 -44.992188 32.910156 -45.875 28.484375 -45.875 L 13.5625 -45.875 L 13.5625 -4.609375 Z M 28.484375 -4.609375 "/></g></g><g style="fill:#d42c34;fill-opacity:1;"><g transform="translate(580.484571, 256.615326)"><path style="stroke:none" d="M 8.21875 -50.484375 L 13.5625 -50.484375 L 13.5625 0 L 8.21875 0 Z M 8.21875 -50.484375 "/></g></g><g style="fill:#d42c34;fill-opacity:1;"><g transform="translate(602.267147, 256.615326)"><path style="stroke:none" d="M 30.296875 0.4375 C 25.296875 0.4375 20.765625 -0.679688 16.703125 -2.921875 C 12.640625 -5.160156 9.460938 -8.222656 7.171875 -12.109375 C 4.890625 -16.003906 3.75 -20.382812 3.75 -25.25 C 3.75 -30.101562 4.890625 -34.476562 7.171875 -38.375 C 9.460938 -42.269531 12.640625 -45.332031 16.703125 -47.5625 C 20.765625 -49.800781 25.296875 -50.921875 30.296875 -50.921875 C 35.296875 -50.921875 39.800781 -49.8125 43.8125 -47.59375 C 47.832031 -45.382812 50.992188 -42.320312 53.296875 -38.40625 C 55.609375 -34.488281 56.765625 -30.101562 56.765625 -25.25 C 56.765625 -20.382812 55.609375 -15.992188 53.296875 -12.078125 C 50.992188 -8.160156 47.832031 -5.09375 43.8125 -2.875 C 39.800781 -0.664062 35.296875 0.4375 30.296875 0.4375 Z M 30.296875 -4.328125 C 34.285156 -4.328125 37.890625 -5.226562 41.109375 -7.03125 C 44.328125 -8.832031 46.847656 -11.332031 48.671875 -14.53125 C 50.503906 -17.726562 51.421875 -21.300781 51.421875 -25.25 C 51.421875 -29.1875 50.503906 -32.753906 48.671875 -35.953125 C 46.847656 -39.148438 44.328125 -41.648438 41.109375 -43.453125 C 37.890625 -45.253906 34.285156 -46.15625 30.296875 -46.15625 C 26.304688 -46.15625 22.6875 -45.253906 19.4375 -43.453125 C 16.1875 -41.648438 13.632812 -39.148438 11.78125 -35.953125 C 9.9375 -32.753906 9.015625 -29.1875 9.015625 -25.25 C 9.015625 -21.300781 9.9375 -17.726562 11.78125 -14.53125 C 13.632812 -11.332031 16.1875 -8.832031 19.4375 -7.03125 C 22.6875 -5.226562 26.304688 -4.328125 30.296875 -4.328125 Z M 30.296875 -4.328125 "/></g></g><g style="fill:#d42c34;fill-opacity:1;"><g transform="translate(662.782326, 256.615326)"><path style="stroke:none" d="M 7.640625 0.359375 C 6.585938 0.359375 5.6875 -0.0234375 4.9375 -0.796875 C 4.195312 -1.566406 3.828125 -2.503906 3.828125 -3.609375 C 3.828125 -4.710938 4.195312 -5.632812 4.9375 -6.375 C 5.6875 -7.125 6.585938 -7.5 7.640625 -7.5 C 8.703125 -7.5 9.617188 -7.125 10.390625 -6.375 C 11.160156 -5.632812 11.546875 -4.710938 11.546875 -3.609375 C 11.546875 -2.503906 11.160156 -1.566406 10.390625 -0.796875 C 9.617188 -0.0234375 8.703125 0.359375 7.640625 0.359375 Z M 7.640625 0.359375 "/></g></g><g style="fill:#d42c34;fill-opacity:1;"><g transform="translate(826.090024, 128.879611)"><path style="stroke:none" d="M 11.5 0.078125 C 9.644531 0.078125 7.953125 -0.363281 6.421875 -1.25 C 4.890625 -2.144531 3.679688 -3.359375 2.796875 -4.890625 C 1.921875 -6.429688 1.484375 -8.125 1.484375 -9.96875 C 1.484375 -11.800781 1.921875 -13.488281 2.796875 -15.03125 C 3.679688 -16.570312 4.890625 -17.785156 6.421875 -18.671875 C 7.960938 -19.566406 9.675781 -20.015625 11.5625 -20.015625 C 13.4375 -20.015625 15.132812 -19.578125 16.65625 -18.703125 C 18.1875 -17.828125 19.390625 -16.625 20.265625 -15.09375 C 21.140625 -13.570312 21.578125 -11.878906 21.578125 -10.015625 C 21.578125 -8.160156 21.128906 -6.457031 20.234375 -4.90625 C 19.347656 -3.363281 18.132812 -2.144531 16.59375 -1.25 C 15.0625 -0.363281 13.363281 0.078125 11.5 0.078125 Z M 11.5 -0.96875 C 13.164062 -0.96875 14.679688 -1.367188 16.046875 -2.171875 C 17.421875 -2.984375 18.503906 -4.078125 19.296875 -5.453125 C 20.097656 -6.828125 20.5 -8.347656 20.5 -10.015625 C 20.5 -11.691406 20.109375 -13.207031 19.328125 -14.5625 C 18.546875 -15.914062 17.476562 -16.984375 16.125 -17.765625 C 14.769531 -18.554688 13.25 -18.953125 11.5625 -18.953125 C 9.875 -18.953125 8.335938 -18.550781 6.953125 -17.75 C 5.578125 -16.957031 4.492188 -15.875 3.703125 -14.5 C 2.921875 -13.125 2.53125 -11.613281 2.53125 -9.96875 C 2.53125 -8.3125 2.921875 -6.796875 3.703125 -5.421875 C 4.492188 -4.046875 5.570312 -2.957031 6.9375 -2.15625 C 8.3125 -1.363281 9.832031 -0.96875 11.5 -0.96875 Z M 11.75 -4.046875 C 10.632812 -4.046875 9.625 -4.296875 8.71875 -4.796875 C 7.820312 -5.296875 7.117188 -5.992188 6.609375 -6.890625 C 6.097656 -7.796875 5.84375 -8.820312 5.84375 -9.96875 C 5.84375 -11.101562 6.097656 -12.117188 6.609375 -13.015625 C 7.117188 -13.921875 7.820312 -14.625 8.71875 -15.125 C 9.625 -15.632812 10.632812 -15.890625 11.75 -15.890625 C 12.71875 -15.890625 13.597656 -15.691406 14.390625 -15.296875 C 15.179688 -14.910156 15.8125 -14.375 16.28125 -13.6875 L 15.0625 -12.78125 C 14.664062 -13.332031 14.179688 -13.738281 13.609375 -14 C 13.035156 -14.269531 12.410156 -14.40625 11.734375 -14.40625 C 10.492188 -14.40625 9.46875 -13.992188 8.65625 -13.171875 C 7.851562 -12.359375 7.453125 -11.289062 7.453125 -9.96875 C 7.453125 -8.632812 7.851562 -7.554688 8.65625 -6.734375 C 9.46875 -5.921875 10.492188 -5.515625 11.734375 -5.515625 C 12.410156 -5.515625 13.035156 -5.644531 13.609375 -5.90625 C 14.179688 -6.175781 14.664062 -6.585938 15.0625 -7.140625 L 16.28125 -6.265625 C 15.8125 -5.554688 15.179688 -5.007812 14.390625 -4.625 C 13.597656 -4.238281 12.71875 -4.046875 11.75 -4.046875 Z M 11.75 -4.046875 "/></g></g></g></svg>